<svg width="1024" height="1024" viewBox="0 0 1024 1024" fill="none" xmlns="http://www.w3.org/2000/svg">
<rect width="1024" height="1024" fill="white"/>
<path d="M198.867 586.17C186.887 586.17 176.191 583.257 166.778 577.43C157.365 571.603 150.007 563.548 144.701 553.266C139.567 542.983 137 531.33 137 518.305C137 505.281 139.653 493.713 144.958 483.602C150.263 473.319 157.622 465.265 167.035 459.438C176.619 453.44 187.4 450.441 199.38 450.441C209.135 450.441 217.606 452.326 224.794 456.096C232.153 459.695 237.972 464.836 242.25 471.52V398H273.055V583.085H245.331L242.25 564.32C239.512 568.09 236.175 571.689 232.239 575.116C228.302 578.372 223.596 581.029 218.12 583.085C212.643 585.142 206.226 586.17 198.867 586.17ZM205.284 559.435C212.643 559.435 219.147 557.722 224.794 554.294C230.442 550.695 234.806 545.811 237.886 539.642C240.967 533.472 242.507 526.36 242.507 518.305C242.507 510.251 240.967 503.139 237.886 496.969C234.806 490.8 230.442 486.001 224.794 482.574C219.147 479.146 212.643 477.432 205.284 477.432C198.268 477.432 191.935 479.146 186.288 482.574C180.64 486.001 176.191 490.8 172.939 496.969C169.859 503.139 168.318 510.251 168.318 518.305C168.318 526.36 169.859 533.472 172.939 539.642C176.191 545.811 180.64 550.695 186.288 554.294C191.935 557.722 198.268 559.435 205.284 559.435Z" fill="black"/>
<path d="M332.222 586.17C321.783 586.17 312.798 584.113 305.268 580C297.909 575.716 292.261 569.375 288.325 560.978C284.389 552.409 282.421 541.869 282.421 529.359V453.526H313.226V526.274C313.226 537.414 315.536 545.897 320.157 551.723C324.949 557.379 332.137 560.207 341.72 560.207C347.881 560.207 353.358 558.75 358.15 555.836C363.113 552.923 366.963 548.724 369.702 543.24C372.611 537.585 374.066 530.73 374.066 522.675V453.526H404.871V583.085H377.66L375.349 561.492C371.413 569.032 365.68 575.031 358.15 579.486C350.791 583.942 342.148 586.17 332.222 586.17Z" fill="black"/>
<path d="M430.16 583.085V439.387C430.16 429.447 431.786 421.478 435.038 415.48C438.461 409.311 443.338 404.855 449.67 402.113C456.002 399.371 463.532 398 472.26 398H487.663V424.22H476.881C471.234 424.22 467.126 425.42 464.559 427.819C462.163 430.047 460.965 433.989 460.965 439.644V583.085H430.16ZM411.677 479.489V453.526H490.23V479.489H411.677Z" fill="black"/>
<path d="M562.7 583.085C553.972 583.085 546.356 581.714 539.853 578.972C533.521 576.23 528.558 571.689 524.964 565.348C521.37 559.007 519.573 550.438 519.573 539.642V479.489H497.496V453.526H519.573L523.167 419.336H550.378V453.526H585.547V479.489H550.378V539.642C550.378 546.154 551.747 550.695 554.485 553.266C557.394 555.665 562.186 556.865 568.861 556.865H584.777V583.085H562.7Z" fill="black"/>
<path d="M605.287 583.085V398H616.839V583.085H605.287Z" fill="black"/>
<path d="M681.67 586.17C671.915 586.17 663.7 584.285 657.026 580.515C650.352 576.744 645.303 571.86 641.88 565.862C638.457 559.692 636.746 553.094 636.746 546.068C636.746 536.642 638.885 528.931 643.164 522.932C647.442 516.934 653.432 512.479 661.133 509.565C669.006 506.48 678.076 504.938 688.344 504.938H727.364C727.364 495.684 725.995 487.801 723.257 481.288C720.689 474.776 716.668 469.72 711.191 466.122C705.715 462.523 698.527 460.723 689.628 460.723C679.188 460.723 670.546 463.208 663.7 468.178C657.026 473.148 652.747 480.688 650.865 490.8H639.056C640.254 481.717 643.249 474.262 648.041 468.435C653.004 462.437 659.08 457.981 666.267 455.068C673.455 451.983 681.242 450.441 689.628 450.441C701.436 450.441 710.935 452.84 718.122 457.639C725.31 462.266 730.53 468.607 733.782 476.661C737.204 484.544 738.916 493.542 738.916 503.653V583.085H728.647L727.364 557.122C725.995 559.864 724.112 562.949 721.716 566.376C719.32 569.804 716.325 572.974 712.731 575.887C709.138 578.801 704.774 581.2 699.639 583.085C694.676 585.142 688.687 586.17 681.67 586.17ZM682.953 575.63C690.312 575.63 696.73 574.259 702.206 571.517C707.683 568.604 712.304 564.834 716.069 560.207C719.834 555.408 722.658 550.267 724.54 544.783C726.423 539.299 727.364 533.9 727.364 528.588V514.964H689.114C679.017 514.964 671.059 516.335 665.241 519.077C659.422 521.647 655.229 525.246 652.662 529.873C650.266 534.5 649.068 539.813 649.068 545.811C649.068 551.295 650.352 556.351 652.919 560.978C655.486 565.433 659.336 569.032 664.47 571.774C669.605 574.345 675.766 575.63 682.953 575.63Z" fill="black"/>
<path d="M825.647 586.17C817.603 586.17 810.159 584.713 803.313 581.8C796.468 578.715 790.563 574.602 785.6 569.461C780.637 564.148 776.787 558.15 774.049 551.466L772.508 583.085H762.24V398.771H773.792V486.43C777.728 475.804 784.146 467.15 793.045 460.466C801.944 453.783 812.811 450.441 825.647 450.441C838.311 450.441 849.178 453.44 858.249 459.438C867.49 465.265 874.592 473.319 879.555 483.602C884.518 493.713 887 505.367 887 518.562C887 531.587 884.518 543.24 879.555 553.523C874.592 563.634 867.49 571.603 858.249 577.43C849.178 583.257 838.311 586.17 825.647 586.17ZM825.133 575.63C834.888 575.63 843.445 573.317 850.804 568.69C858.334 563.891 864.239 557.207 868.517 548.639C872.796 540.07 874.935 529.959 874.935 518.305C874.935 506.652 872.796 496.541 868.517 487.972C864.239 479.232 858.334 472.548 850.804 467.921C843.445 463.294 834.888 460.98 825.133 460.98C815.379 460.98 806.736 463.38 799.206 468.178C791.676 472.977 785.771 479.746 781.493 488.486C777.386 497.055 775.332 506.995 775.332 518.305C775.332 529.616 777.386 539.556 781.493 548.125C785.771 556.693 791.676 563.463 799.206 568.433C806.736 573.231 815.379 575.63 825.133 575.63Z" fill="black"/>
<path d="M617.258 599.152C617.258 602.701 614.384 605.578 610.84 605.578C607.295 605.578 604.422 602.701 604.422 599.152C604.422 595.602 607.295 592.725 610.84 592.725C614.384 592.725 617.258 595.602 617.258 599.152Z" fill="black"/>
<path d="M617.258 620.573C617.258 624.123 614.384 627 610.84 627C607.295 627 604.422 624.123 604.422 620.573C604.422 617.024 607.295 614.147 610.84 614.147C614.384 614.147 617.258 617.024 617.258 620.573Z" fill="black"/>
</svg>
