<svg width="300" height="315" viewBox="0 0 300 315" fill="none" xmlns="http://www.w3.org/2000/svg">
<path d="M86.737 0.00684943C86.737 -1.41479 -1.40463 218.939 0.0170142 218.939C1.43865 218.939 63.9904 220.361 65.4124 218.939C66.8344 217.518 85.3158 164.917 88.1587 164.917C91.0016 164.917 147.867 314.189 149.289 314.189C150.711 314.189 150.711 312.767 150.711 312.767C150.711 312.767 183.409 235.999 183.409 233.156C183.408 230.313 86.737 1.42849 86.737 0.00684943Z" fill="#171717"/>
<path d="M176.3 82.4619C176.301 81.0402 207.577 0.00675727 210.42 0.00684943C213.263 0.0069416 301.405 218.939 299.983 220.361C298.561 221.783 233.166 221.783 231.744 220.361C230.323 218.939 176.3 83.8837 176.3 82.4619Z" fill="#171717"/>
</svg>
